HIERARCHY
ROOT Hips
{
 OFFSET 0.000000 0.000000 0.000000
 CHANNELS 6 Xposition Yposition Zposition Yrotation Xrotation Zrotation
 JOINT Chest
 {
  OFFSET 0.000000 9.585900 0.002600
  CHANNELS 3 Yrotation Xrotation Zrotation
  JOINT Chest2
  {
   OFFSET 0.000000 9.601200 -0.005300
   CHANNELS 3 Yrotation Xrotation Zrotation
   JOINT Chest3
   {
    OFFSET 0.000000 9.561800 0.000000
    CHANNELS 3 Yrotation Xrotation Zrotation
    JOINT Chest4
    {
     OFFSET 0.000000 9.552100 0.000000
     CHANNELS 3 Yrotation Xrotation Zrotation
     JOINT Neck
     {
      OFFSET 0.000000 14.453000 0.000000
      CHANNELS 3 Yrotation Xrotation Zrotation
      JOINT Head
      {
       OFFSET 0.000000 8.936500 -0.011300
       CHANNELS 3 Yrotation Xrotation Zrotation
       End Site
       {
        OFFSET 0.000000 17.073600 -0.006000
       }
      }
     }
     JOINT RightCollar
     {
      OFFSET -2.921100 9.558500 0.000000
      CHANNELS 3 Yrotation Xrotation Zrotation
      JOINT RightShoulder
      {
       OFFSET -13.519700 0.000000 0.000000
       CHANNELS 3 Yrotation Xrotation Zrotation
       JOINT RightElbow
       {
        OFFSET 0.000000 -29.696600 0.000000
        CHANNELS 3 Yrotation Xrotation Zrotation
        JOINT RightWrist
        {
         OFFSET 0.000000 -24.004700 0.000000
         CHANNELS 3 Yrotation Xrotation Zrotation
         End Site
         {
          OFFSET 0.000000 -17.728500 0.000000
         }
        }
       }
      }
     }
     JOINT LeftCollar
     {
      OFFSET 2.921100 9.558500 0.000000
      CHANNELS 3 Yrotation Xrotation Zrotation
      JOINT LeftShoulder
      {
       OFFSET 13.519700 0.000000 0.000000
       CHANNELS 3 Yrotation Xrotation Zrotation
       JOINT LeftElbow
       {
        OFFSET 0.000000 -29.696600 0.000000
        CHANNELS 3 Yrotation Xrotation Zrotation
        JOINT LeftWrist
        {
         OFFSET 0.000000 -24.004700 0.000000
         CHANNELS 3 Yrotation Xrotation Zrotation
         End Site
         {
          OFFSET 0.000000 -17.728500 0.000000
         }
        }
       }
      }
     }
    }
   }
  }
 }
 JOINT RightHip
 {
  OFFSET -7.771700 -0.012900 -0.001300
  CHANNELS 3 Yrotation Xrotation Zrotation
  JOINT RightKnee
  {
   OFFSET 0.000000 -40.869800 0.001200
   CHANNELS 3 Yrotation Xrotation Zrotation
   JOINT RightAnkle
   {
    OFFSET 0.000000 -39.717900 0.002100
    CHANNELS 3 Yrotation Xrotation Zrotation
    JOINT RightToe
    {
     OFFSET 0.000000 -4.965400 11.033500
     CHANNELS 3 Yrotation Xrotation Zrotation
     End Site
     {
      OFFSET 0.000000 -1.423100 5.872300
     }
    }
   }
  }
 }
 JOINT LeftHip
 {
  OFFSET 7.771700 -0.012900 -0.001300
  CHANNELS 3 Yrotation Xrotation Zrotation
  JOINT LeftKnee
  {
   OFFSET 0.000000 -40.869800 0.001200
   CHANNELS 3 Yrotation Xrotation Zrotation
   JOINT LeftAnkle
   {
    OFFSET 0.000000 -39.717900 0.002100
    CHANNELS 3 Yrotation Xrotation Zrotation
    JOINT LeftToe
    {
     OFFSET 0.000000 -4.965400 11.033500
     CHANNELS 3 Yrotation Xrotation Zrotation
     End Site
     {
      OFFSET 0.000000 -1.423100 5.872300
     }
    }
   }
  }
 }
}
MOTION
Frames: 15
Frame Time: 0.008333
-249.811644 60.685688 -80.222062 155.832895 -12.283101 2.431028 4.213686 8.701315 1.169038 0.246194 0.486491 0.065233 0.406772 0.913031 0.113164 3.918347 8.097511 1.295099 3.755965 19.254123 0.952228 3.785592 -5.310896 0.158910 8.402045 -1.599303 -2.148167 21.967326 -17.886343 -21.409021 -45.003435 -53.593037 92.982250 -1.168223 2.394112 5.775775 -6.075274 -3.110260 -4.332200 4.283785 -4.465298 9.575334 37.337289 -56.367622 -93.745711 -5.855526 -3.839126 -8.948128 -0.782546 -56.463832 7.789026 -26.632633 71.332504 -23.208362 -0.028033 -6.224358 -3.669194 0.032704 -0.278014 0.018473 18.451540 -55.963390 -2.861035 27.716781 67.866343 27.313720 -15.625220 -17.538656 0.661746 0.148648 0.260836 0.063143
-249.812755 60.692193 -80.232116 155.837385 -12.259996 2.424175 4.208757 8.685203 1.172522 0.239834 0.510010 0.064761 0.409469 0.904930 0.114675 3.920641 8.103328 1.300930 3.757401 19.227874 0.942339 3.789386 -5.339300 0.152522 8.354094 -1.534667 -2.190784 21.964226 -17.988639 -21.385852 -44.942440 -53.565789 92.971058 -1.223506 2.404443 5.770220 -6.145549 -3.139477 -4.358775 4.284705 -4.440868 9.607355 37.335704 -56.370649 -93.668034 -5.860123 -3.820661 -8.948012 -0.737163 -56.478921 7.754174 -26.577055 71.341837 -23.149832 -0.028644 -6.234712 -3.644831 0.010129 -0.279683 0.012105 18.437023 -55.984570 -2.850111 27.726582 67.867166 27.314671 -15.651787 -17.518478 0.659024 0.163694 0.238786 0.072873
-249.814916 60.698439 -80.242736 155.831604 -12.235797 2.427415 4.206237 8.688019 1.167316 0.240144 0.511172 0.065296 0.419340 0.900668 0.110412 3.918446 8.089126 1.305480 3.758838 19.219925 0.943303 3.787809 -5.380606 0.140209 8.290708 -1.385324 -2.243184 21.968172 -18.159690 -21.370171 -44.856500 -53.501101 92.940243 -1.208960 2.402329 5.819402 -6.219609 -3.107367 -4.363388 4.280900 -4.456080 9.622449 37.375558 -56.382704 -93.620284 -5.885553 -3.769120 -8.980114 -0.669227 -56.494639 7.710816 -26.594306 71.336876 -23.157985 -0.031057 -6.245672 -3.624961 0.005348 -0.275959 0.009314 18.446145 -56.003694 -2.855908 27.731461 67.872332 27.322295 -15.740284 -17.500230 0.658473 0.142046 0.218022 0.075075
-249.810578 60.705439 -80.258444 155.814182 -12.255051 2.411841 4.231152 8.736748 1.176495 0.234259 0.502138 0.072218 0.427801 0.899605 0.107782 3.922707 8.099163 1.309713 3.761780 19.176128 0.930467 3.771949 -5.411364 0.150539 8.202830 -1.194411 -2.304696 21.979498 -18.389248 -21.370065 -44.738814 -53.389040 92.819461 -1.131162 2.380048 6.019372 -6.307235 -3.017703 -4.329666 4.286955 -4.542443 9.607070 37.438310 -56.454029 -93.552514 -5.905211 -3.694919 -9.124498 -0.588428 -56.455631 7.695500 -26.663382 71.312077 -23.210536 -0.046119 -6.272464 -3.600601 0.011282 -0.257293 0.012024 18.421467 -55.989971 -2.808375 27.728919 67.899980 27.340316 -15.808224 -17.502262 0.650201 0.129053 0.199894 0.075984
-249.810791 60.710877 -80.272648 155.796478 -12.255029 2.419689 4.250690 8.741128 1.168672 0.240981 0.510733 0.061000 0.422690 0.891870 0.119019 3.955102 8.119168 1.301167 3.738681 19.132165 0.931596 3.770749 -5.435024 0.144521 8.079614 -0.968807 -2.349918 21.989117 -18.636361 -21.391156 -44.658774 -53.324869 92.701914 -1.076214 2.392260 6.364010 -6.436999 -2.826894 -4.257884 4.334717 -4.705596 9.558240 37.540001 -56.617768 -93.472312 -5.936331 -3.590521 -9.431386 -0.530753 -56.447477 7.676741 -26.690174 71.307615 -23.252279 -0.048381 -6.281163 -3.573114 -0.000332 -0.256189 0.012289 18.426550 -55.984011 -2.804648 27.735253 67.913867 27.352583 -15.863732 -17.493718 0.651004 0.106511 0.184064 0.068709
-249.811607 60.715202 -80.288205 155.776058 -12.262462 2.436836 4.258308 8.740045 1.145457 0.240699 0.510804 0.064061 0.435354 0.902688 0.119620 3.957325 8.118476 1.303988 3.738738 19.107343 0.915684 3.785939 -5.460775 0.119542 7.984533 -0.711728 -2.389521 21.981533 -18.864109 -21.437505 -44.658183 -53.300837 92.623750 -1.008435 2.499279 6.851349 -6.569891 -2.553822 -4.201809 4.459724 -4.896215 9.492127 37.755887 -56.897240 -93.454801 -6.045733 -3.423115 -9.923954 -0.480079 -56.435801 7.654374 -26.684881 71.315271 -23.276312 -0.042674 -6.286980 -3.539011 -0.023869 -0.260285 0.004143 18.438117 -55.968250 -2.811446 27.754050 67.926059 27.376589 -15.889248 -17.482114 0.649471 0.097612 0.166709 0.060496
-249.808050 60.717987 -80.303500 155.756860 -12.282031 2.430708 4.253203 8.742078 1.150652 0.243335 0.514344 0.066023 0.427271 0.894199 0.115920 3.980073 8.126742 1.306599 3.747495 19.108459 0.908389 3.820178 -5.490420 0.066582 7.907295 -0.435494 -2.409435 21.932953 -19.065162 -21.503140 -44.730657 -53.323273 92.551172 -0.880738 2.688919 7.474944 -6.734070 -2.266988 -4.170499 4.681935 -5.032609 9.424965 38.151562 -57.375471 -93.504009 -6.266878 -3.184569 -10.649202 -0.427658 -56.408187 7.655512 -26.724063 71.310507 -23.324240 -0.055935 -6.300149 -3.513374 -0.029614 -0.256558 0.003875 18.373270 -55.947962 -2.745633 27.807407 67.935512 27.412491 -15.849495 -17.482389 0.645527 0.107319 0.162038 0.051474
-249.797250 60.718468 -80.315422 155.737262 -12.304899 2.377200 4.267142 8.754226 1.209377 0.225362 0.510968 0.071323 0.420792 0.892275 0.116982 3.970596 8.129141 1.310309 3.786792 19.107963 0.879360 3.879880 -5.527753 -0.018834 7.892878 -0.173760 -2.437172 21.805579 -19.219098 -21.552160 -44.910045 -53.438035 92.491212 -0.702084 2.927506 8.224350 -6.890021 -2.007585 -4.169624 5.004969 -5.068115 9.338681 38.787269 -58.119848 -93.641414 -6.613951 -2.881631 -11.570115 -0.384781 -56.378396 7.716339 -26.881440 71.281880 -23.448720 -0.098162 -6.305989 -3.518128 0.011725 -0.256098 0.027346 18.244501 -55.944616 -2.598058 27.870282 67.952718 27.456017 -15.745181 -17.494831 0.639309 0.145246 0.168530 0.046378
-249.790706 60.717995 -80.333386 155.722348 -12.357522 2.359641 4.268081 8.800110 1.234503 0.212329 0.512056 0.077564 0.408473 0.896353 0.124255 3.987475 8.131443 1.301244 3.807191 19.083327 0.839105 3.966394 -5.567322 -0.125753 7.890070 0.033527 -2.465477 21.565644 -19.299455 -21.531257 -45.281192 -53.720763 92.494242 -0.495273 3.122077 8.961347 -7.075818 -1.777549 -4.146164 5.423060 -4.995893 9.202813 39.697961 -59.177852 -93.881565 -7.040614 -2.551568 -12.590691 -0.322872 -56.326986 7.738448 -26.878742 71.301295 -23.491785 -0.135747 -6.328578 -3.445609 -0.021832 -0.250125 0.017297 18.150553 -55.904396 -2.499633 27.944685 67.974106 27.513682 -15.641113 -17.498483 0.628348 0.178630 0.165742 0.048860
-249.786650 60.714758 -80.348343 155.705674 -12.395342 2.346029 4.245117 8.831379 1.261682 0.210521 0.519910 0.082852 0.428225 0.896928 0.115507 3.950891 8.151172 1.330064 3.883530 19.026066 0.722102 4.051629 -5.609658 -0.223875 7.952211 0.187175 -2.553328 21.209602 -19.306315 -21.410161 -45.942913 -54.241492 92.610593 -0.245137 3.116432 9.440772 -7.198286 -1.606731 -4.135357 5.915017 -4.811082 9.017723 40.914336 -60.558018 -94.239241 -7.463343 -2.230382 -13.553716 -0.264773 -56.295080 7.753108 -26.871037 71.321298 -23.515413 -0.171729 -6.341043 -3.401646 -0.040665 -0.249017 0.017188 18.063666 -55.878830 -2.405276 28.012659 67.993152 27.561735 -15.596519 -17.504579 0.617506 0.178294 0.161261 0.049563
-249.786480 60.709826 -80.364539 155.678656 -12.440589 2.355107 4.196626 8.879139 1.280480 0.230781 0.526913 0.076529 0.426435 0.906559 0.119467 3.886393 8.219577 1.386154 4.008186 18.927755 0.544380 4.161966 -5.677389 -0.356192 8.073615 0.267846 -2.725009 20.770515 -19.250663 -21.198137 -46.970472 -55.009111 92.869827 -0.070174 2.895360 9.639607 -7.209293 -1.555027 -4.158017 6.458866 -4.530821 8.804203 42.434097 -62.208660 -94.700587 -7.829129 -1.926201 -14.288517 -0.199519 -56.254487 7.741065 -26.847312 71.341567 -23.525136 -0.186411 -6.356325 -3.369171 -0.062010 -0.242542 0.015029 18.005984 -55.843433 -2.333006 28.073223 68.021898 27.614490 -15.656063 -17.495834 0.607467 0.206556 0.137523 0.057130
-249.784047 60.704544 -80.384678 155.639580 -12.525868 2.359970 4.181091 8.969873 1.301655 0.251772 0.530737 0.069696 0.415688 0.917669 0.127797 3.846202 8.284135 1.417194 4.118110 18.838707 0.401433 4.298921 -5.756674 -0.513734 8.128075 0.331162 -2.869923 20.292857 -19.139039 -20.925504 -48.247857 -55.893079 93.202692 -0.075337 2.523371 9.583589 -7.195614 -1.542305 -4.131520 7.060438 -4.210818 8.575568 44.157890 -64.006988 -95.194918 -8.130742 -1.660045 -14.743788 -0.132328 -56.173743 7.739881 -26.857580 71.359201 -23.567729 -0.188666 -6.368120 -3.336641 -0.086448 -0.240144 0.012097 17.926893 -55.771508 -2.226972 28.143777 68.052321 27.678198 -15.705945 -17.488476 0.598901 0.190455 0.157003 0.067088
-249.786150 60.696460 -80.396917 155.626476 -12.571636 2.360585 4.146729 9.013554 1.313545 0.287047 0.536729 0.059825 0.415474 0.920262 0.128489 3.787322 8.339928 1.448964 4.235927 18.769580 0.267094 4.457318 -5.826591 -0.684125 8.121195 0.400876 -2.998685 19.790213 -18.986219 -20.609439 -49.589870 -56.694998 93.521964 -0.221061 1.971521 9.176671 -7.135849 -1.527846 -4.070638 7.747911 -3.911306 8.332272 45.934838 -65.778823 -95.656924 -8.380274 -1.480548 -14.940137 -0.047661 -56.142606 7.711840 -26.950721 71.370169 -23.674154 -0.190760 -6.378701 -3.301881 -0.089441 -0.234212 -0.004074 17.840740 -55.739873 -2.151015 28.234059 68.063805 27.736611 -15.684029 -17.450500 0.625661 0.230487 0.139200 0.051458
-249.783642 60.688262 -80.408557 155.587771 -12.641214 2.337539 4.136382 9.067378 1.358159 0.289947 0.558388 0.059167 0.414879 0.930472 0.130786 3.754471 8.365204 1.467533 4.372142 18.720584 0.122853 4.638751 -5.872407 -0.869650 8.065530 0.490155 -3.139157 19.247051 -18.822459 -20.242741 -50.977935 -57.309306 93.860909 -0.577712 1.181403 8.430420 -7.017334 -1.487809 -3.996137 8.541933 -3.660517 8.070405 47.757025 -67.385346 -96.167261 -8.606138 -1.385411 -14.879025 0.007838 -56.085132 7.735768 -27.048447 71.374922 -23.764877 -0.186253 -6.379868 -3.317494 -0.097641 -0.236419 0.021186 17.725142 -55.695773 -2.019595 28.330848 68.088184 27.824444 -15.641549 -17.438784 0.625541 0.255462 0.134603 0.045284
-249.783371 60.680450 -80.420847 155.542150 -12.726635 2.329076 4.128660 9.132704 1.393769 0.237549 0.547819 0.077809 0.411075 0.946831 0.135962 3.777229 8.417849 1.464934 4.524272 18.688447 -0.030559 4.840468 -5.897781 -1.068919 7.958548 0.590761 -3.299146 18.640701 -18.669877 -19.814978 -52.397952 -57.688664 94.254637 -1.230586 0.164065 7.394563 -6.849591 -1.422414 -3.912993 9.445281 -3.456815 7.785781 49.717298 -68.774945 -96.871259 -8.790546 -1.352521 -14.581283 0.128574 -56.026821 7.720923 -27.235502 71.380923 -23.928832 -0.217163 -6.332202 -3.309421 -0.074259 -0.289416 0.030365 17.633997 -55.632606 -1.912435 28.387912 68.111240 27.922348 -15.755226 -17.461988 0.579086 0.333960 0.166389 0.080456
